<?xml version="1.0" encoding="utf-8"?>
<?xml-stylesheet type="text/xsl" href="rss1.xsl"?>
<rss version="2.0" xmlns:atom="http://www.w3.org/2005/Atom" xmlns:content="http://purl.org/rss/1.0/modules/content/" xmlns:dc="http://purl.org/dc/elements/1.1/" xmlns:media="http://search.yahoo.com/mrss/">
<channel>
 <title>Getty</title>
 <link>http://www.gettyimg.com/</link>
 <atom:link href="http://www.gettyimg.com/" rel="self" type="application/rss+xml" />

 
                <item>
                <title><![CDATA[【Requests】[REQ AUD] - Flyleaf - New Horizons (iTunes bonus track version) / Lossless]]></title>
                <link><![CDATA[https://sharemania.us/threads/flyleaf-new-horizons-itunes-bonus-track-version-lossless.227739/]]></link>
                <description><![CDATA[<article>
<blockquote class="messageText SelectQuoteContainer ugc baseHtml">
if its possible, i want this album in apple lossless, please! (the full album, not just the bonus track)<br>
<a href="https://music.apple.com/us/album/new-horizons/1440812477" target="_blank" class="externalLink" rel="nofollow">https://music.apple.com/us/album/new-horizons/1440812477</a>
<div class="messageTextEndMarker">&nbsp;</div>
</blockquote>
</article>]]></description>
                <author><![CDATA[Venus Fly Trap]]></author>
                </item>

                
                <item>
                <title><![CDATA[【PRORES HD】The Marías - Hush |ProRes 1080|]]></title>
                <link><![CDATA[https://sharemania.us/threads/the-mar%C3%ADas-hush-prores-1080.227738/]]></link>
                <description><![CDATA[<article>
<blockquote class="messageText SelectQuoteContainer ugc baseHtml">
<div style="text-align: center"><img src="https://i.imgur.com/yNMv9l3.gif" class="bbCodeImage LbImage" alt="[​IMG]" data-url="https://i.imgur.com/yNMv9l3.gif" style=""><br>
<br>
​</div>
<div class="ToggleTriggerAnchor bbCodeSpoilerContainer">
<button type="button" class="button bbCodeSpoilerButton ToggleTrigger Tooltip JsOnly" data-target="> .SpoilerTarget"><span>Spoiler: <span class="SpoilerTitle">ProRes</span></span></button>
<div class="SpoilerTarget bbCodeSpoilerText">
<div class="bbCodeBlock bbCodeCode">
<div class="type">Code:</div>
<pre>Format                                   : MPEG-4
Format profile                           : QuickTime
Codec ID                                 : qt   2005.03 (qt  )
File size                                : 11.8 GiB
Duration                                 : 3 min 0 s
Overall bit rate mode                    : Variable
Overall bit rate                         : 562 Mb/s
Encoded date                             : UTC 2021-05-13 09:38:50
Tagged date                              : UTC 2021-05-13 09:39:40
Writing library                          : Apple QuickTime
TIM                                      : 00:00:00:00
TSC                                      : 24000
TSZ                                      : 1001

Video
ID                                       : 1
Format                                   : ProRes
Format version                           : Version 1
Format profile                           : 4444
Codec ID                                 : ap4h
Duration                                 : 3 min 0 s
Bit rate mode                            : Variable
Bit rate                                 : 559 Mb/s
Width                                    : 2 400 pixels
Height                                   : 1 800 pixels
Display aspect ratio                     : 4:3
Frame rate mode                          : Constant
Frame rate                               : 23.976 (24000/1001) FPS
Color space                              : YUVA
Chroma subsampling                       : 4:4:4
Scan type                                : Progressive
Bits/(Pixel*Frame)                       : 5.399
Stream size                              : 11.7 GiB (100%)
Writing library                          : Apple
Language                                 : English
Encoded date                             : UTC 2021-05-13 09:38:50
Tagged date                              : UTC 2021-05-13 09:38:50
Color primaries                          : BT.709
Transfer characteristics                 : BT.709
Matrix coefficients                      : BT.709

Audio
ID                                       : 2
Format                                   : PCM
Format settings                          : Little / Signed
Codec ID                                 : in24
Duration                                 : 3 min 0 s
Bit rate mode                            : Constant
Bit rate                                 : 2 304 kb/s
Channel(s)                               : 2 channels
Channel layout                           : L R
Sampling rate                            : 48.0 kHz
Bit depth                                : 24 bits
Stream size                              : 49.6 MiB (0%)
Language                                 : English
Encoded date                             : UTC 2021-05-13 09:38:50
Tagged date                              : UTC 2021-05-13 09:38:50

Other
ID                                       : 3
Type                                     : Time code
Format                                   : QuickTime TC
Duration                                 : 3 min 0 s
Frame rate                               : 23.976 (24000/1001) FPS
Time code of first frame                 : 00:00:00:00
Time code, striped                       : Yes
Language                                 : English
Encoded date                             : UTC 2021-05-13 09:38:50
Tagged date                              : UTC 2021-05-13 09:38:50</pre>
</div><div style="text-align: center">​</div></div>
</div><div style="text-align: center"><br>
<br>
<br>
<div class="bbCodeBlock bbCodeVfcHH HiddenContent">
<div class="attribution type">Hidden Content:</div>
<blockquote>You must reply before you can see the hidden data contained here.</blockquote>
</div></div>
<div class="messageTextEndMarker">&nbsp;</div>
</blockquote>
</article>]]></description>
                <author><![CDATA[fstambuk]]></author>
                </item>

                </channel></rss>